<?xml version="1.0" encoding="UTF-8"?>
<svg width="148px" height="50px" viewBox="0 0 148 50" version="1.1" xmlns="http://www.w3.org/2000/svg" xmlns:xlink="http://www.w3.org/1999/xlink">
    <!-- Generator: Sketch 41.2 (35397) - http://www.bohemiancoding.com/sketch -->
    <title>logo--light</title>
    <desc>Created with Sketch.</desc>
    <defs></defs>
    <g id="Page-1" stroke="none" stroke-width="1" fill="none" fill-rule="evenodd">
        <g id="logo--light" transform="translate(0.443359, -0.000000)">
            <polygon id="Background" fill="#9E62C9" points="23.2 0 23.2 0 23.2 0 0 8.3 3.6 38.9 23.2 49.8 23.2 49.8 23.2 49.8 42.9 38.9 46.4 8.3"></polygon>
            <polygon id="Shadow" fill="#724AB1" points="23.2 0 23.2 5.5 23.2 5.5 23.2 30.7 23.2 30.7 23.2 49.8 23.2 49.8 42.9 38.9 46.4 8.3"></polygon>
            <path d="M28.797516,28.220716 C28.097516,29.420716 27.397516,30.320716 26.697516,31.120716 C25.797516,32.120716 24.897516,32.720716 23.697516,33.220716 C22.397516,33.820716 21.297516,34.120716 19.397516,34.120716 C17.497516,34.120716 15.897516,33.520716 14.897516,32.920716 C13.897516,32.320716 12.997516,31.620716 12.297516,30.620716 C11.797516,29.920716 11.397516,29.320716 11.097516,28.620716 C10.997516,28.220716 10.697516,27.520716 10.697516,27.420716 C10.497516,26.620716 10.297516,26.120716 10.297516,24.220716 L10.297516,14.020716 L12.997516,14.020716 L12.997516,24.220716 C13.097516,24.920716 13.297516,26.320716 13.397516,26.920716 C13.497516,27.320716 13.497516,27.420716 13.697516,27.920716 C13.897516,28.420716 14.097516,28.820716 14.497516,29.220716 C14.997516,29.820716 15.497516,30.320716 16.197516,30.720716 C16.897516,31.120716 17.997516,31.620716 19.397516,31.620716 C21.697516,31.620716 23.297516,30.520716 24.697516,29.320716 C25.297516,28.720716 25.997516,27.520716 26.597516,26.420716 C26.697516,26.120716 26.997516,25.520716 26.997516,25.520716 L27.897516,25.520716 L31.197516,25.520716 L28.097516,17.220716 L23.097516,26.820716 L20.397516,26.820716 L20.397516,26.420716 L20.397516,13.920716 L23.097516,13.920716 L23.097516,20.920716 L26.697516,13.920716 L29.697516,13.920716 L36.997516,33.720716 L34.097516,33.720716 L31.997516,28.120716 L28.797516,28.220716 Z" id="path-1_1_" fill="#FFFFFF"></path>
            <path d="M56.556641,15.8 C56.556641,16.9 57.456641,17.5 58.656641,17.5 C59.956641,17.5 60.956641,16.7 61.156641,15.4 L61.856641,11.7 L60.856641,11.7 L60.156641,15.3 C59.956641,16.1 59.456641,16.5 58.656641,16.5 C57.956641,16.5 57.556641,16.2 57.556641,15.6 L57.556641,15.3 L58.256641,11.7 L57.256641,11.7 L56.556641,15.4 L56.556641,15.8 L56.556641,15.8 Z M62.056641,17.4 L65.556641,17.4 L65.756641,16.5 L63.256641,16.5 L64.156641,11.7 L63.156641,11.7 L62.056641,17.4 Z M67.556641,17.4 L68.556641,17.4 L69.456641,12.6 L71.356641,12.6 L71.556641,11.7 L66.856641,11.7 L66.556641,12.6 L68.356641,12.6 L67.556641,17.4 Z M71.156641,17.4 L72.156641,17.4 L73.256641,11.7 L72.256641,11.7 L71.156641,17.4 Z M73.456641,17.4 L74.456641,17.4 L75.356641,14.2 C75.456641,13.8 75.556641,13.3 75.556641,13.3 L75.556641,13.3 C75.556641,13.3 75.656641,13.9 75.656641,14.2 L76.156641,16.4 L77.056641,16.4 L78.356641,14.2 C78.556641,13.9 78.856641,13.3 78.856641,13.3 L78.856641,13.3 C78.856641,13.3 78.756641,13.8 78.656641,14.2 L78.256641,17.4 L79.256641,17.4 L79.856641,11.7 L78.756641,11.7 L77.056641,14.5 C76.856641,14.8 76.656641,15.3 76.656641,15.3 L76.656641,15.3 C76.656641,15.3 76.656641,14.8 76.556641,14.5 L75.956641,11.7 L74.856641,11.7 L73.456641,17.4 Z M81.056641,17.4 L81.856641,15.9 L83.856641,15.9 L84.056641,17.4 L85.056641,17.4 L84.156641,11.7 L82.956641,11.7 L79.956641,17.4 L81.056641,17.4 Z M82.256641,15.1 L83.056641,13.6 C83.256641,13.3 83.456641,12.7 83.456641,12.7 L83.456641,12.7 C83.456641,12.7 83.456641,13.3 83.556641,13.6 L83.756641,15.1 L82.256641,15.1 Z M86.856641,17.4 L87.856641,17.4 L88.756641,12.6 L90.656641,12.6 L90.856641,11.7 L86.156641,11.7 L85.956641,12.6 L87.756641,12.6 L86.856641,17.4 Z M90.456641,17.4 L93.956641,17.4 L94.156641,16.5 L91.656641,16.5 L91.956641,15 L93.856641,15 L94.056641,14.1 L92.156641,14.1 L92.456641,12.6 L94.856641,12.6 L95.056641,11.7 L91.556641,11.7 L90.456641,17.4 Z" id="ULTIMATE-Copy" fill="#919BAB"></path>
            <path d="M63.056641,36.9 L65.756641,36.9 L60.756641,22.7 L58.056641,22.7 L53.056641,36.9 L55.756641,36.9 L56.956641,33.3 L61.956641,33.3 L63.056641,36.9 Z M59.356641,25.2 C59.356641,25.2 59.656641,26.6 59.956641,27.4 L61.256641,31.2 L57.556641,31.2 L58.856641,27.4 C59.056641,26.6 59.356641,25.2 59.356641,25.2 L59.356641,25.2 Z M67.556641,36.9 L70.156641,36.9 L70.156641,28.7 C70.156641,27.9 70.056641,26.5 70.056641,26.5 L70.056641,26.5 C70.056641,26.5 70.656641,27.9 71.256641,28.7 L76.656641,36.9 L79.256641,36.9 L79.256641,22.7 L76.556641,22.7 L76.556641,30.9 C76.556641,31.7 76.656641,33.1 76.656641,33.1 L76.656641,33.1 C76.656641,33.1 76.056641,31.7 75.456641,30.9 L70.056641,22.7 L67.556641,22.7 L67.556641,36.9 Z M81.756641,29.8 C81.756641,34.3 84.956641,37.2 88.756641,37.2 C91.356641,37.2 92.856641,35.7 92.856641,35.7 L92.856641,35.7 L92.856641,36.3 L92.856641,37 L95.056641,37 L95.056641,29.5 L90.556641,29.5 L90.556641,31.7 L92.756641,31.7 L92.756641,33.4 C92.756641,33.4 91.356641,34.9 89.156641,34.9 C86.456641,34.9 84.356641,32.9 84.356641,29.8 C84.356641,27.1 86.056641,24.9 89.256641,24.9 C91.556641,24.9 93.056641,26.3 93.056641,26.3 L94.356641,24.4 C94.356641,24.4 92.556641,22.6 89.056641,22.6 C84.856641,22.5 81.756641,25.7 81.756641,29.8 L81.756641,29.8 Z M97.756641,31.8 C97.756641,35 100.056641,37.1 103.456641,37.1 C106.856641,37.1 109.156641,34.9 109.156641,31.8 L109.156641,22.7 L106.556641,22.7 L106.556641,31.8 C106.556641,33.7 105.256641,34.8 103.356641,34.8 C101.456641,34.8 100.256641,33.7 100.256641,31.8 L100.256641,22.7 L97.656641,22.7 L97.656641,31.8 L97.756641,31.8 Z M112.556641,36.9 L121.256641,36.9 L121.256641,34.7 L115.156641,34.7 L115.156641,22.7 L112.556641,22.7 L112.556641,36.9 Z M131.656641,36.9 L134.356641,36.9 L129.356641,22.7 L126.556641,22.7 L121.556641,36.9 L124.256641,36.9 L125.456641,33.3 L130.456641,33.3 L131.656641,36.9 Z M127.956641,25.2 C127.956641,25.2 128.256641,26.6 128.556641,27.4 L129.856641,31.2 L126.156641,31.2 L127.456641,27.4 C127.656641,26.6 127.956641,25.2 127.956641,25.2 L127.956641,25.2 Z M136.156641,36.9 L138.756641,36.9 L138.756641,31.6 L141.256641,31.6 L144.056641,36.9 L146.956641,36.9 L144.056641,31.6 C143.756641,31.1 143.556641,30.9 143.556641,30.9 L143.556641,30.9 C145.056641,30.3 145.956641,28.7 145.956641,27 C145.956641,25.1 145.056641,23.8 143.656641,23.1 C143.056641,22.8 142.356641,22.7 140.756641,22.7 L136.156641,22.7 L136.156641,36.9 Z M138.656641,29.4 L138.656641,25 L140.656641,25 C142.656641,25 143.256641,25.8 143.256641,27.2 C143.256641,28.6 142.356641,29.4 141.056641,29.4 L138.656641,29.4 Z" id="ANGULAR-Copy-3" fill="#3A4250"></path>
        </g>
    </g>
</svg>